<svg width="162" height="50" fill="none" xmlns="http://www.w3.org/2000/svg">
    <g clip-path="url(#clip0)">
        <path d="M45.67 36.552c2.758-4.655 3.792-10.345 2.93-16.035C47.221 12.07 41.534 5.172 34.124 2.07c-.345 3.793-.345 7.759.344 11.552 1.379 8.793 5.17 16.724 11.202 22.93z"
              fill="#1D9CD8"/>
        <path d="M32.4 13.965c-.689-4.31-.689-8.448-.344-12.759C28.437 0 24.646-.345 20.51.344 7.24 2.414-1.895 15 .345 28.275c2.069 13.276 14.65 22.414 27.92 20.345 6.893-1.034 12.58-4.828 16.2-10.172-6.377-6.724-10.686-15.173-12.064-24.483z"
              fill="#1D9CD8"/>
        <path d="M67.213 10.69c0-1.552-.173-2.759-2.068-2.759-2.068 0-2.068 2.931-2.068 6.035 0 5 .517 6.034 2.412 6.034.517 0 1.207-.172 1.724-.345v-3.62h-1.896v-2.587h5.17v8.276c-.861.172-3.274.517-4.653.517-5.687 0-6.377-2.413-6.377-8.448 0-4.138.173-8.276 5.688-8.276 3.274 0 5.342 1.897 5.17 5.173h-3.102zm4.308 11.206L76.002 5.69h4.481l4.308 16.206h-3.619l-.861-3.62H75.83l-.862 3.62h-3.447zm6.55-12.93l-1.552 7.068h3.275L78.07 8.965zm7.754 12.93V5.69h3.447v13.448h4.998v2.758h-8.445zm9.307 0V5.69h3.447v13.448h4.998v2.758h-8.445zm8.962-8.103c0-4.31 0-8.276 5.514-8.276 5.515 0 5.515 4.138 5.515 8.276 0 4.31 0 8.276-5.515 8.276-5.514 0-5.514-3.966-5.514-8.276zm7.755 0c0-4.138-.172-5.862-2.068-5.862-1.896 0-2.068 1.724-2.068 5.862s.172 5.862 2.068 5.862c1.896.173 2.068-1.724 2.068-5.862zM58.596 42.586l4.48-16.207h4.481l4.309 16.207h-3.62l-.86-3.62h-4.654l-.862 3.62h-3.274zm6.376-12.93l-1.55 7.068h3.274l-1.724-7.069zm7.583 4.827c0-4.31 0-8.276 5.515-8.276 3.447 0 4.826 1.896 4.654 5.345h-3.275c0-2.07-.345-2.931-1.379-2.931-1.895 0-2.068 1.724-2.068 5.862s.172 5.862 2.068 5.862c1.551 0 1.551-2.07 1.551-3.276h3.275c0 4.31-1.724 5.69-4.826 5.69-5.515.172-5.515-3.966-5.515-8.276zm11.892 0c0-4.31 0-8.276 5.515-8.276s5.515 4.138 5.515 8.276c0 4.31 0 8.276-5.515 8.276-5.515.172-5.515-3.966-5.515-8.276zm7.755 0c0-4.138-.172-5.862-2.068-5.862-1.896 0-2.068 1.724-2.068 5.862s.172 5.862 2.068 5.862c1.723.172 2.068-1.724 2.068-5.862zm16.373-8.103v11.55c0 2.414-1.379 5-5.515 5-3.792 0-5.515-1.897-5.515-5V26.379h3.447v11.207c0 2.07.861 2.759 2.068 2.759 1.551 0 2.068-1.035 2.068-2.759V26.38h3.447zm6.376 16.551c-4.136 0-4.998-2.414-4.825-5.345h3.446c0 1.552 0 2.931 1.896 2.931 1.206 0 1.723-.69 1.723-1.896 0-2.931-6.893-3.104-6.893-7.931 0-2.587 1.206-4.483 5.342-4.483 3.275 0 4.998 1.552 4.654 4.828h-3.103c0-1.207-.172-2.414-1.551-2.414-1.034 0-1.723.69-1.723 1.724 0 3.103 6.894 2.758 6.894 7.93-.173 4.139-3.275 4.656-5.86 4.656zm17.062-16.551v2.758h-3.792v13.448h-3.446V29.138h-3.792v-2.759h11.03zm.862 16.206V26.38h3.446v16.207h-3.446zm5.342-8.103c0-4.31 0-8.276 5.515-8.276 3.447 0 4.826 1.896 4.653 5.345h-3.274c0-2.07-.345-2.931-1.379-2.931-1.896 0-2.068 1.724-2.068 5.862s.172 5.862 2.068 5.862c1.551 0 1.551-2.07 1.551-3.276h3.275c0 4.31-1.724 5.69-4.826 5.69-5.515.172-5.515-3.966-5.515-8.276zm16.372 8.448c-4.136 0-4.998-2.414-4.825-5.345h3.447c0 1.552 0 2.931 1.895 2.931 1.207 0 1.724-.69 1.724-1.896 0-2.931-6.894-3.104-6.894-7.931 0-2.587 1.207-4.483 5.343-4.483 3.274 0 4.998 1.552 4.653 4.828h-3.102c0-1.207-.173-2.414-1.551-2.414-1.034 0-1.724.69-1.724 1.724 0 3.103 6.894 2.758 6.894 7.93-.172 4.139-3.275 4.656-5.86 4.656z"
              fill="#1D1D1B"/>
    </g>
    <defs>
        <clipPath id="clip0">
            <path fill="#fff" d="M0 0h162v50H0z"/>
        </clipPath>
    </defs>
</svg>