<svg width="57" height="30" fill="none" xmlns="http://www.w3.org/2000/svg">
    <g clip-path="url(#clip0)">
        <path d="M28.606 26.17l11.449 3.793V0l-11.45 3.794V26.17z" fill="#4CC7E9"/>
        <path d="M0 11.397h1.963v1.125c.235-.395.567-.722.963-.949a2.601 2.601 0 011.297-.344c1.733 0 3.069 1.31 3.069 3.677v.117c0 2.367-1.32 3.71-3.069 3.71-.452.019-.9-.087-1.297-.305a2.538 2.538 0 01-.963-.937v3.542H0v-9.636zm5.295 3.643v-.118c0-1.46-.707-2.165-1.683-2.165-1.022 0-1.732.72-1.732 2.165v.118c0 1.444.676 2.149 1.732 2.149 1.09-.017 1.683-.756 1.683-2.15zm3.052.991v-4.633h1.947v4.348c0 .973.396 1.443 1.22 1.443.826 0 1.47-.52 1.47-1.578v-4.213h1.946v7.185H13v-1.125a2.365 2.365 0 01-.935.979 2.31 2.31 0 01-1.31.297c-1.386 0-2.408-.823-2.408-2.703zm8.086-7.891h1.946v10.425h-1.947V8.14zm3.693 8.31v-3.643h-.907v-1.41h.907V9.853h1.947v1.544h1.484v1.41h-1.484v3.458c0 .571.28.856.775.856.254.01.507-.035.742-.134v1.546a3.385 3.385 0 01-1.188.185c-1.467-.001-2.276-.774-2.276-2.268zm25.027-5.052h1.963v1.376c.182-.456.498-.844.907-1.109a2.295 2.295 0 011.37-.368v1.846c-1.452-.016-2.277.47-2.277 1.847v3.592h-1.963v-7.184zm5.031 4.634v-4.634h1.946v4.348c0 .974.396 1.444 1.22 1.444.825 0 1.469-.52 1.469-1.578v-4.214h1.947v7.185h-1.947v-1.125a2.366 2.366 0 01-.935.98 2.31 2.31 0 01-1.309.296c-1.37 0-2.392-.823-2.392-2.703z"
              fill="#333740"/>
    </g>
    <defs>
        <clipPath id="clip0">
            <path fill="#fff" d="M0 0h57v30H0z"/>
        </clipPath>
    </defs>
</svg>